HIERARCHY
ROOT root
{
	OFFSET 0.000000 0.000000 0.000000
	CHANNELS 6 Xposition Yposition Zposition Zrotation Yrotation Xrotation
	JOINT lhip
	{
		OFFSET 0.058581 -0.082280 -0.017664
		CHANNELS 3 Zrotation Yrotation Xrotation
		JOINT lknee
		{
			OFFSET 0.043451 -0.386469 0.008037
			CHANNELS 3 Zrotation Yrotation Xrotation
			JOINT lankle
			{
				OFFSET -0.014790 -0.426874 -0.037428
				CHANNELS 3 Zrotation Yrotation Xrotation
				JOINT ltoe
				{
					OFFSET 0.041054 -0.060286 0.122042
					CHANNELS 3 Zrotation Yrotation Xrotation
					End Site
					{
						OFFSET 0.000000 0.000000 0.000000
					}
				}
			}
		}
	}
	JOINT rhip
	{
		OFFSET -0.060310 -0.090513 -0.013543
		CHANNELS 3 Zrotation Yrotation Xrotation
		JOINT rknee
		{
			OFFSET -0.043257 -0.383688 -0.004843
			CHANNELS 3 Zrotation Yrotation Xrotation
			JOINT rankle
			{
				OFFSET 0.019056 -0.420046 -0.034562
				CHANNELS 3 Zrotation Yrotation Xrotation
				JOINT rtoe
				{
					OFFSET -0.034840 -0.062106 0.130323
					CHANNELS 3 Zrotation Yrotation Xrotation
					End Site
					{
						OFFSET 0.000000 0.000000 0.000000
					}
				}
			}
		}
	}
	JOINT lowerback
	{
		OFFSET 0.004439 0.124404 -0.038385
		CHANNELS 3 Zrotation Yrotation Xrotation
		JOINT upperback
		{
			OFFSET 0.004488 0.137956 0.026820
			CHANNELS 3 Zrotation Yrotation Xrotation
			JOINT chest
			{
				OFFSET -0.002265 0.056032 0.002855
				CHANNELS 3 Zrotation Yrotation Xrotation
				JOINT lowerneck
				{
					OFFSET -0.013390 0.211636 -0.033468
					CHANNELS 3 Zrotation Yrotation Xrotation
					JOINT upperneck
					{
						OFFSET 0.010113 0.088937 0.050410
						CHANNELS 3 Zrotation Yrotation Xrotation
						End Site
						{
							OFFSET 0.000000 0.000000 0.000000
						}
					}
				}
				JOINT lclavicle
				{
					OFFSET 0.071702 0.114000 -0.018898
					CHANNELS 3 Zrotation Yrotation Xrotation
					JOINT lshoulder
					{
						OFFSET 0.122921 0.045205 -0.019046
						CHANNELS 3 Zrotation Yrotation Xrotation
						JOINT lelbow
						{
							OFFSET 0.255332 -0.015649 -0.022946
							CHANNELS 3 Zrotation Yrotation Xrotation
							JOINT lwrist
							{
								OFFSET 0.265709 0.012698 -0.007375
								CHANNELS 3 Zrotation Yrotation Xrotation
								End Site
								{
									OFFSET 0.000000 0.000000 0.000000
								}
							}
						}
					}
				}
				JOINT rclavicle
				{
					OFFSET -0.082954 0.112472 -0.023707
					CHANNELS 3 Zrotation Yrotation Xrotation
					JOINT rshoulder
					{
						OFFSET -0.113228 0.046853 -0.008472
						CHANNELS 3 Zrotation Yrotation Xrotation
						JOINT relbow
						{
							OFFSET -0.260127 -0.014369 -0.031269
							CHANNELS 3 Zrotation Yrotation Xrotation
							JOINT rwrist
							{
								OFFSET -0.269108 0.006794 -0.006027
								CHANNELS 3 Zrotation Yrotation Xrotation
								End Site
								{
									OFFSET 0.000000 0.000000 0.000000
								}
							}
						}
					}
				}
			}
		}
	}
}
MOTION
Frames: 16
Frame Time: 0.033333
-0.201009 -1.113462 0.988936 178.478566 1.416620 88.308368 6.145139 4.832712 3.231526 -1.517946 -2.705505 -4.365412 3.441011 6.555004 -1.348778 0.000000 -0.000000 0.000000 -3.542453 -7.482207 2.292466 1.077312 -8.726511 0.348773 -0.180221 -6.604468 -7.203309 0.000000 -0.000000 0.000000 1.581638 2.905373 7.039546 1.929283 -3.355004 8.224307 1.263592 -0.343941 -7.074794 -4.012367 3.889764 5.749709 2.479044 2.156307 -12.607701 -27.587856 -9.643643 1.878913 -60.579955 -1.283060 12.684961 11.476135 -19.068342 -19.870578 3.790951 -12.273243 -7.015798 25.209924 12.417423 7.210795 54.669885 1.148736 7.724213 -20.453991 19.521520 -20.344753 6.500112 13.930927 -6.185676 
-0.200427 -1.112563 0.988944 178.485953 1.369269 88.408472 6.138590 4.750597 3.222985 -1.470235 -3.061973 -4.387553 3.513570 6.716211 -1.287823 0.000000 -0.000000 0.000000 -3.466094 -7.303195 2.206528 0.886898 -8.362934 0.392409 0.175463 -7.093314 -7.405332 0.000000 -0.000000 0.000000 1.419358 3.008109 6.767168 2.012188 -3.516525 8.447955 1.293596 -0.234979 -7.116643 -4.081792 3.721711 5.598391 2.593205 2.288988 -12.324890 -27.708046 -9.756675 2.105125 -60.576387 -1.134850 13.047135 11.474875 -19.256456 -18.430984 3.538951 -11.947095 -5.310800 25.390468 12.436897 7.213705 54.383569 0.997453 7.530401 -20.205382 19.717672 -19.742023 5.761160 13.942120 -5.037577 
-0.199935 -1.111701 0.988954 178.566260 1.442874 88.466394 6.245112 4.726597 3.233887 -1.470364 -3.307529 -4.413890 3.390974 6.718973 -1.527202 0.000000 -0.000000 0.000000 -3.357723 -7.253936 2.131638 0.898823 -8.238798 0.600618 0.283543 -7.373612 -7.537940 0.000000 -0.000000 0.000000 1.535683 2.948716 6.714602 2.026217 -3.554544 8.446353 1.231098 -0.149409 -7.111846 -4.027742 3.647396 5.557720 2.602155 2.283443 -12.176499 -27.701011 -9.727486 2.237651 -60.658453 -1.013662 13.448690 11.438275 -19.516129 -16.646455 3.003747 -11.570645 -3.639006 25.286436 12.450050 7.205469 54.448242 0.802163 7.591987 -19.901733 19.907341 -18.954406 4.694767 13.984246 -4.441812 
-0.199394 -1.110201 0.988992 178.575371 1.421728 88.470884 6.229833 4.632851 3.441285 -1.419377 -3.759729 -4.574575 3.500580 6.521329 -1.979734 0.000000 -0.000000 0.000000 -3.396234 -7.281689 2.159511 0.967595 -8.158176 0.799308 0.291132 -7.544498 -7.524784 0.000000 -0.000000 0.000000 1.560811 2.964825 6.537391 2.074473 -3.503439 8.788102 1.194499 -0.063758 -7.229065 -3.914087 3.678881 5.659798 2.587685 2.237824 -12.062828 -27.813300 -9.811849 2.365756 -60.598188 -0.824266 13.948921 11.271638 -19.926006 -14.328482 2.228296 -11.099243 -1.122456 25.371213 12.508564 7.289537 54.317118 0.482799 7.775962 -19.624882 20.247736 -17.596890 3.493962 13.999417 -2.787549 
-0.199199 -1.109742 0.988949 178.598799 1.426636 88.514044 6.258721 4.660355 3.408000 -1.462599 -3.704072 -4.561875 3.394921 6.577473 -2.156582 0.000000 -0.000000 0.000000 -3.379643 -7.284366 2.112931 0.961385 -8.125371 0.886420 0.304174 -7.612938 -7.596158 0.000000 -0.000000 0.000000 1.563387 2.965323 6.433354 2.094832 -3.505495 8.888973 1.181711 -0.046795 -7.262694 -3.847639 3.680265 5.638820 2.576589 2.213589 -11.978256 -27.849347 -9.822400 2.394647 -60.595206 -0.737897 14.165815 11.243138 -20.083396 -13.502868 1.962020 -10.944180 -0.238522 25.430276 12.509002 7.337642 54.250328 0.376435 7.865694 -19.551591 20.424695 -17.144010 3.032343 13.981142 -2.319924 
-0.198702 -1.108698 0.988784 178.628574 1.459695 88.627630 6.327521 4.857419 3.211732 -1.498890 -3.365261 -4.283827 3.169805 6.880492 -1.916535 0.000000 -0.000000 0.000000 -3.315964 -7.313002 1.995769 0.905641 -8.130646 1.120140 0.225106 -7.724877 -7.771254 0.000000 -0.000000 0.000000 1.595263 2.957171 6.167739 2.106830 -3.543567 9.138572 1.143683 0.033906 -7.387471 -3.818207 3.772801 5.868747 2.724273 2.172609 -11.955661 -27.749086 -9.815055 2.502074 -60.769335 -0.540833 14.646786 11.283867 -20.483613 -11.845786 1.166856 -10.544519 1.574546 25.422860 12.593135 7.495860 54.243181 0.180204 7.957556 -19.379361 20.697156 -16.297662 2.102750 13.944139 -1.590210 
-0.198516 -1.107737 0.988631 178.624797 1.342895 88.666933 6.212494 4.756746 3.208656 -1.567956 -3.596203 -4.282252 3.298835 6.781792 -2.547922 0.000000 -0.000000 0.000000 -3.487866 -7.380777 1.831815 0.910865 -8.194691 1.481027 0.330172 -7.676511 -7.987817 0.000000 -0.000000 0.000000 1.506867 2.975125 6.095099 2.082528 -3.532765 9.214975 1.110124 0.017801 -7.392199 -3.785261 3.794421 5.855831 2.769038 2.133698 -11.758105 -27.623253 -9.771477 2.500701 -60.858140 -0.538690 14.597097 11.293996 -20.734422 -11.723624 1.760158 -10.492264 1.509419 25.472413 12.633249 7.540505 54.155532 0.119380 8.105314 -19.197571 20.915007 -15.633624 0.941558 14.016769 -0.711867 
-0.198350 -1.106885 0.988531 178.684752 1.299822 88.730657 6.131715 4.757673 3.041743 -1.514131 -3.452025 -4.021183 3.218216 6.915156 -2.698497 0.000000 -0.000000 0.000000 -3.547696 -7.360318 1.778979 0.928829 -8.226272 1.589775 0.360592 -7.719134 -8.073918 0.000000 -0.000000 0.000000 1.524810 2.988133 6.090246 2.043040 -3.492269 9.129308 1.075595 -0.022692 -7.381552 -3.729013 3.875021 5.801164 2.782663 2.054903 -11.557340 -27.552059 -9.740814 2.493299 -60.861010 -0.564245 14.517104 11.193384 -20.945452 -11.777378 2.287296 -10.628603 1.358267 25.533972 12.558090 7.547671 54.089697 -0.003427 8.234897 -19.078099 21.199026 -15.008727 -0.124562 14.127548 0.197619 
-0.198010 -1.105891 0.988410 178.737139 1.327005 88.822194 6.173969 4.753951 2.852511 -1.468978 -3.235354 -3.733766 3.137995 6.976942 -2.222353 0.000000 -0.000000 0.000000 -3.523603 -7.356888 1.746138 0.986932 -8.202119 1.608975 0.347991 -7.801749 -8.067063 0.000000 -0.000000 0.000000 1.574542 3.020127 5.917151 2.027896 -3.489616 9.261707 1.037275 -0.026210 -7.442955 -3.633020 3.967123 5.901860 2.792982 1.945363 -11.417835 -27.531264 -9.679289 2.457924 -60.789228 -0.651886 14.516366 11.105116 -21.034205 -11.736514 2.730497 -10.697136 1.375461 25.574357 12.529957 7.639603 54.034020 0.002726 8.420201 -18.686710 21.306111 -14.307014 -1.343712 14.130987 1.042436 
-0.197653 -1.104770 0.988360 178.759321 1.316459 88.806095 6.180091 4.658669 2.891510 -1.413416 -3.699879 -3.602778 3.453101 6.748929 -2.157896 0.000000 -0.000000 0.000000 -3.525261 -7.377945 1.785988 0.966571 -8.226233 1.714970 0.306577 -7.857222 -8.170830 0.000000 -0.000000 0.000000 1.521957 3.040145 5.904565 2.056887 -3.464905 9.352913 1.020935 -0.022126 -7.524794 -3.608378 3.906050 5.985959 2.853542 1.961599 -11.287377 -27.553007 -9.609188 2.331213 -60.679695 -0.726735 14.490403 10.947753 -21.069183 -11.739090 3.454862 -10.580493 1.471277 25.718359 12.458697 7.611021 53.863825 -0.069321 8.619709 -18.313278 21.497633 -13.538382 -2.435490 14.222155 2.144516 
-0.197418 -1.103854 0.988302 178.767824 1.319023 88.805532 6.177436 4.621305 2.887079 -1.396920 -3.780119 -3.493868 3.577056 6.707242 -2.437110 0.000000 -0.000000 0.000000 -3.500235 -7.363917 1.725636 0.896640 -8.227393 1.946980 0.359423 -7.806312 -8.267529 0.000000 -0.000000 0.000000 1.485568 3.052782 5.904311 2.095397 -3.457394 9.493517 0.971660 0.014723 -7.650926 -3.584896 3.887906 6.100109 2.916374 1.940449 -11.189597 -27.518381 -9.570018 2.204484 -60.642607 -0.718852 14.605166 10.979289 -21.121587 -11.675718 3.446909 -10.511186 1.721860 25.792003 12.435906 7.558010 53.790253 -0.117025 8.660920 -18.438362 21.701245 -13.616068 -2.343268 14.313677 2.174331 
-0.197289 -1.103083 0.988331 178.834346 1.340870 88.776752 6.256523 4.661657 2.917685 -1.526744 -3.632423 -3.467736 3.428480 6.789711 -2.823146 0.000000 -0.000000 0.000000 -3.487174 -7.357588 1.793467 0.906245 -8.312195 2.007131 0.407679 -7.808812 -8.304665 0.000000 -0.000000 0.000000 1.475602 3.013309 5.938344 2.078487 -3.441912 9.449578 0.959202 0.011709 -7.618558 -3.498746 3.965644 6.033857 2.918875 1.873358 -10.968692 -27.502944 -9.595920 2.277530 -60.550784 -0.769693 14.522754 11.034482 -21.237510 -11.694584 3.444185 -10.521421 1.603188 25.859004 12.486553 7.585630 53.730094 -0.026931 8.668890 -18.516446 21.722747 -13.674956 -2.299342 14.330347 2.056149 
-0.197123 -1.102175 0.988395 178.889418 1.347572 88.728247 6.296786 4.666939 3.001286 -1.554330 -3.647428 -3.426559 3.274215 6.791666 -2.996142 0.000000 -0.000000 0.000000 -3.483172 -7.354534 1.872393 0.911049 -8.354771 2.077063 0.333124 -7.920847 -8.321428 0.000000 -0.000000 0.000000 1.409164 3.017299 5.975713 2.103030 -3.394948 9.460264 1.020428 -0.024784 -7.589315 -3.409669 4.049104 5.977077 2.951787 1.836133 -10.755272 -27.587280 -9.642488 2.363369 -60.460413 -0.854752 14.399714 11.170998 -21.255891 -11.831108 3.476997 -10.622474 1.443110 25.945307 12.475985 7.631115 53.647823 0.016807 8.678771 -18.616821 21.872018 -13.697700 -2.260110 14.377013 1.966188 
-0.196967 -1.101357 0.988337 178.942912 1.362905 88.748503 6.354402 4.656470 2.970093 -1.606475 -3.671472 -3.300734 3.277575 6.750578 -3.037166 0.000000 -0.000000 0.000000 -3.471709 -7.424797 1.843245 0.906353 -8.332512 2.241814 0.378746 -7.895507 -8.373935 0.000000 -0.000000 0.000000 1.379191 3.019339 5.947572 2.106844 -3.453697 9.456886 1.003692 0.033262 -7.596272 -3.384425 4.043667 6.019821 2.983829 1.805936 -10.631546 -27.509724 -9.621989 2.363619 -60.473737 -0.887395 14.409126 11.181095 -21.263216 -11.807779 3.548773 -10.586329 1.408370 25.902103 12.498616 7.565565 53.751726 -0.009840 8.698239 -18.579900 21.918694 -13.621138 -2.250213 14.280960 1.999936 
-0.196825 -1.100654 0.988287 178.968203 1.384040 88.756597 6.378652 4.644690 2.936721 -1.605379 -3.627645 -3.179026 3.272137 6.798656 -3.128832 0.000000 -0.000000 0.000000 -3.442390 -7.415876 1.846464 0.896002 -8.352500 2.329135 0.307404 -7.973031 -8.474511 0.000000 -0.000000 0.000000 1.353382 3.061851 5.945310 2.086951 -3.419820 9.417990 1.002555 -0.014581 -7.546078 -3.330421 4.053368 5.959062 3.006936 1.783942 -10.423972 -27.471131 -9.620748 2.372032 -60.414587 -0.886545 14.448225 11.188906 -21.335685 -11.650822 3.582942 -10.504616 1.454276 25.948966 12.475865 7.607012 53.756067 0.028381 8.748531 -18.571255 21.996065 -13.571137 -2.250076 14.275564 1.946707 
-0.196725 -1.099579 0.988135 178.982445 1.389198 88.692587 6.436691 4.658534 3.047072 -1.668961 -3.691931 -3.116387 3.339239 6.802793 -3.089139 0.000000 -0.000000 0.000000 -3.433161 -7.333759 1.982764 0.856382 -8.383320 2.367440 0.349912 -7.981214 -8.538073 0.000000 -0.000000 0.000000 1.306571 3.005736 6.122469 2.049471 -3.371451 9.302399 1.038678 0.093424 -7.579908 -3.315877 3.971420 5.964251 3.143405 1.901881 -10.253187 -27.470623 -9.697197 2.473298 -60.408367 -0.733402 14.438784 11.346004 -21.469476 -11.680484 3.542693 -10.443080 1.331067 25.867527 12.509424 7.402296 53.926239 -0.316688 8.683370 -18.562206 22.201027 -13.431858 -2.155943 14.328999 1.880800 
